/* XPM */
static char *_0e5276f77484748ff7cd538d5dcc8e4[] = {
/* columns rows colors chars-per-pixel */
"9 678 27 1 ",
"  c red",
". c #FF7736",
"X c #FF7767",
"o c green",
"O c #009155",
"+ c #00FF75",
"@ c #E1A700",
"# c orange",
"$ c #FBFF00",
"% c #F0EB7E",
"& c #3700FF",
"* c #7347D4",
"= c #B300F8",
"- c magenta",
"; c #EA58DA",
": c #FF6BF2",
"> c #3880B9",
", c #6E8092",
"< c #00E6D3",
"1 c #3EFFD4",
"2 c cyan",
"3 c #76CFF0",
"4 c #A1A9B2",
"5 c gray",
"6 c #FFBBC9",
"7 c #EAECF1",
"8 c #F8F9FA",
/* pixels */
"111111111",
"111111111",
"111111111",
"111111111",
"111111111",
"111111111",
"111111111",
"111111111",
"111111111",
"&&&&&&&&&",
"&&&&&&&&&",
"&&&&&&&&&",
"&&&&&&&&&",
"&&&&&&&&&",
"&&&&&&&&&",
"&&&&&&&&&",
"&&&&&&&&&",
"&&&&&&&&&",
"&&&&&&&&&",
"&&&&&&&&&",
"&&&&&&&&&",
"&&&&&&&&&",
"&&&&&&&&&",
"&&&&&&&&&",
"&&&&&&&&&",
"&&&&&&&&&",
"&&&&&&&&&",
"&&&&&&&&&",
"&&&&&&&&&",
"&&&&&&&&&",
"&&&&&&&&&",
"&&&&&&&&&",
"&&&&&&&&&",
"&&&&&&&&&",
"&&&&&&&&&",
"&&&&&&&&&",
"*********",
"*********",
"*********",
"*********",
"*********",
"*********",
"*********",
"*********",
"*********",
"*********",
"*********",
"*********",
"*********",
"*********",
"*********",
"*********",
"*********",
"*********",
"*********",
"*********",
"*********",
"*********",
"*********",
"*********",
"*********",
"*********",
"*********",
"333333333",
"333333333",
"333333333",
"333333333",
"333333333",
"333333333",
"333333333",
"333333333",
"333333333",
"333333333",
"333333333",
"333333333",
"333333333",
"333333333",
"333333333",
"333333333",
"333333333",
"333333333",
"333333333",
"333333333",
"333333333",
"333333333",
"333333333",
"333333333",
"333333333",
"333333333",
"333333333",
">>>>>>>>>",
">>>>>>>>>",
">>>>>>>>>",
">>>>>>>>>",
">>>>>>>>>",
">>>>>>>>>",
">>>>>>>>>",
">>>>>>>>>",
">>>>>>>>>",
">>>>>>>>>",
">>>>>>>>>",
">>>>>>>>>",
">>>>>>>>>",
">>>>>>>>>",
">>>>>>>>>",
">>>>>>>>>",
">>>>>>>>>",
">>>>>>>>>",
">>>>>>>>>",
">>>>>>>>>",
">>>>>>>>>",
">>>>>>>>>",
">>>>>>>>>",
">>>>>>>>>",
">>>>>>>>>",
">>>>>>>>>",
">>>>>>>>>",
".........",
".........",
".........",
".........",
".........",
".........",
".........",
".........",
".........",
".........",
".........",
".........",
".........",
".........",
".........",
".........",
".........",
".........",
".........",
".........",
".........",
".........",
".........",
".........",
".........",
".........",
".........",
"222222222",
"222222222",
"222222222",
"222222222",
"222222222",
"222222222",
"222222222",
"222222222",
"222222222",
"222222222",
"222222222",
"222222222",
"222222222",
"222222222",
"222222222",
"222222222",
"222222222",
"222222222",
"222222222",
"222222222",
"222222222",
"222222222",
"222222222",
"222222222",
"222222222",
"222222222",
"222222222",
"@@@@@@@@@",
"@@@@@@@@@",
"@@@@@@@@@",
"@@@@@@@@@",
"@@@@@@@@@",
"@@@@@@@@@",
"@@@@@@@@@",
"@@@@@@@@@",
"@@@@@@@@@",
"@@@@@@@@@",
"@@@@@@@@@",
"@@@@@@@@@",
"@@@@@@@@@",
"@@@@@@@@@",
"@@@@@@@@@",
"@@@@@@@@@",
"@@@@@@@@@",
"@@@@@@@@@",
"@@@@@@@@@",
"@@@@@@@@@",
"@@@@@@@@@",
"@@@@@@@@@",
"@@@@@@@@@",
"@@@@@@@@@",
"@@@@@@@@@",
"@@@@@@@@@",
"@@@@@@@@@",
"555555555",
"555555555",
"555555555",
"555555555",
"555555555",
"555555555",
"555555555",
"555555555",
"555555555",
"555555555",
"555555555",
"555555555",
"555555555",
"555555555",
"555555555",
"555555555",
"555555555",
"555555555",
"555555555",
"555555555",
"555555555",
"555555555",
"555555555",
"555555555",
"555555555",
"555555555",
"555555555",
",,,,,,,,,",
",,,,,,,,,",
",,,,,,,,,",
",,,,,,,,,",
",,,,,,,,,",
",,,,,,,,,",
",,,,,,,,,",
",,,,,,,,,",
",,,,,,,,,",
",,,,,,,,,",
",,,,,,,,,",
",,,,,,,,,",
",,,,,,,,,",
",,,,,,,,,",
",,,,,,,,,",
",,,,,,,,,",
",,,,,,,,,",
",,,,,,,,,",
",,,,,,,,,",
",,,,,,,,,",
",,,,,,,,,",
",,,,,,,,,",
",,,,,,,,,",
",,,,,,,,,",
",,,,,,,,,",
",,,,,,,,,",
",,,,,,,,,",
"ooooooooo",
"ooooooooo",
"ooooooooo",
"ooooooooo",
"ooooooooo",
"ooooooooo",
"ooooooooo",
"ooooooooo",
"ooooooooo",
"ooooooooo",
"ooooooooo",
"ooooooooo",
"ooooooooo",
"ooooooooo",
"ooooooooo",
"ooooooooo",
"ooooooooo",
"ooooooooo",
"ooooooooo",
"ooooooooo",
"ooooooooo",
"ooooooooo",
"ooooooooo",
"ooooooooo",
"ooooooooo",
"ooooooooo",
"ooooooooo",
"777748888",
"777748888",
"777748888",
"777748888",
"777748888",
"777748888",
"777748888",
"777748888",
"777748888",
"777748888",
"777748888",
"777748888",
"777748888",
"777748888",
"777748888",
"777748888",
"777748888",
"777748888",
"777748888",
"777748888",
"777748888",
"777748888",
"777748888",
"777748888",
"777748888",
"777748888",
"OOOOOOOOO",
"OOOOOOOOO",
"OOOOOOOOO",
"OOOOOOOOO",
"OOOOOOOOO",
"OOOOOOOOO",
"OOOOOOOOO",
"OOOOOOOOO",
"OOOOOOOOO",
"OOOOOOOOO",
"OOOOOOOOO",
"OOOOOOOOO",
"OOOOOOOOO",
"OOOOOOOOO",
"OOOOOOOOO",
"OOOOOOOOO",
"OOOOOOOOO",
"OOOOOOOOO",
"OOOOOOOOO",
"OOOOOOOOO",
"OOOOOOOOO",
"OOOOOOOOO",
"OOOOOOOOO",
"OOOOOOOOO",
"OOOOOOOOO",
"OOOOOOOOO",
"OOOOOOOOO",
"OOOOOOOOO",
"+++++++++",
"+++++++++",
"+++++++++",
"+++++++++",
"+++++++++",
"+++++++++",
"+++++++++",
"+++++++++",
"+++++++++",
"+++++++++",
"+++++++++",
"+++++++++",
"+++++++++",
"+++++++++",
"+++++++++",
"+++++++++",
"+++++++++",
"+++++++++",
"+++++++++",
"+++++++++",
"+++++++++",
"+++++++++",
"+++++++++",
"+++++++++",
"+++++++++",
"+++++++++",
"+++++++++",
"%%%%%%%%%",
"%%%%%%%%%",
"%%%%%%%%%",
"%%%%%%%%%",
"%%%%%%%%%",
"%%%%%%%%%",
"%%%%%%%%%",
"%%%%%%%%%",
"%%%%%%%%%",
"%%%%%%%%%",
"%%%%%%%%%",
"%%%%%%%%%",
"%%%%%%%%%",
"%%%%%%%%%",
"%%%%%%%%%",
"%%%%%%%%%",
"%%%%%%%%%",
"%%%%%%%%%",
"%%%%%%%%%",
"%%%%%%%%%",
"%%%%%%%%%",
"%%%%%%%%%",
"%%%%%%%%%",
"%%%%%%%%%",
"%%%%%%%%%",
"%%%%%%%%%",
"%%%%%%%%%",
"---------",
"---------",
"---------",
"---------",
"---------",
"---------",
"---------",
"---------",
"---------",
"---------",
"---------",
"---------",
"---------",
"---------",
"---------",
"---------",
"---------",
"---------",
"---------",
"---------",
"---------",
"---------",
"---------",
"---------",
"---------",
"---------",
"---------",
"#########",
"#########",
"#########",
"#########",
"#########",
"#########",
"#########",
"#########",
"#########",
"#########",
"#########",
"#########",
"#########",
"#########",
"#########",
"#########",
"#########",
"#########",
"#########",
"#########",
"#########",
"#########",
"#########",
"#########",
"#########",
"#########",
"#########",
";;;;;;;;;",
";;;;;;;;;",
";;;;;;;;;",
";;;;;;;;;",
";;;;;;;;;",
";;;;;;;;;",
";;;;;;;;;",
";;;;;;;;;",
";;;;;;;;;",
";;;;;;;;;",
";;;;;;;;;",
";;;;;;;;;",
";;;;;;;;;",
";;;;;;;;;",
";;;;;;;;;",
";;;;;;;;;",
";;;;;;;;;",
";;;;;;;;;",
";;;;;;;;;",
";;;;;;;;;",
";;;;;;;;;",
";;;;;;;;;",
";;;;;;;;;",
";;;;;;;;;",
";;;;;;;;;",
";;;;;;;;;",
";;;;;;;;;",
"666666666",
"666666666",
"666666666",
"666666666",
"666666666",
"666666666",
"666666666",
"666666666",
"666666666",
"666666666",
"666666666",
"666666666",
"666666666",
"666666666",
"666666666",
"666666666",
"666666666",
"666666666",
"666666666",
"666666666",
"666666666",
"666666666",
"666666666",
"666666666",
"666666666",
"666666666",
"666666666",
"=========",
"=========",
"=========",
"=========",
"=========",
"=========",
"=========",
"=========",
"=========",
"=========",
"=========",
"=========",
"=========",
"=========",
"=========",
"=========",
"=========",
"=========",
"=========",
"=========",
"=========",
"=========",
"=========",
"=========",
"=========",
"=========",
"=========",
"777748888",
"777748888",
"777748888",
"777748888",
"777748888",
"777748888",
"777748888",
"777748888",
"777748888",
"777748888",
"777748888",
"777748888",
"777748888",
"777748888",
"777748888",
"777748888",
"777748888",
"777748888",
"777748888",
"777748888",
"777748888",
"777748888",
"777748888",
"777748888",
"777748888",
"777748888",
"         ",
"         ",
"         ",
"         ",
"         ",
"         ",
"         ",
"         ",
"         ",
"         ",
"         ",
"         ",
"         ",
"         ",
"         ",
"         ",
"         ",
"         ",
"         ",
"         ",
"         ",
"         ",
"         ",
"         ",
"         ",
"         ",
"         ",
"         ",
"XXXXXXXXX",
"XXXXXXXXX",
"XXXXXXXXX",
"XXXXXXXXX",
"XXXXXXXXX",
"XXXXXXXXX",
"XXXXXXXXX",
"XXXXXXXXX",
"XXXXXXXXX",
"XXXXXXXXX",
"XXXXXXXXX",
"XXXXXXXXX",
"XXXXXXXXX",
"XXXXXXXXX",
"XXXXXXXXX",
"XXXXXXXXX",
"XXXXXXXXX",
"XXXXXXXXX",
"XXXXXXXXX",
"XXXXXXXXX",
"XXXXXXXXX",
"XXXXXXXXX",
"XXXXXXXXX",
"XXXXXXXXX",
"XXXXXXXXX",
"XXXXXXXXX",
"XXXXXXXXX",
"<<<<<<<<<",
"<<<<<<<<<",
"<<<<<<<<<",
"<<<<<<<<<",
"<<<<<<<<<",
"<<<<<<<<<",
"<<<<<<<<<",
"<<<<<<<<<",
"<<<<<<<<<",
"<<<<<<<<<",
"<<<<<<<<<",
"<<<<<<<<<",
"<<<<<<<<<",
"<<<<<<<<<",
"<<<<<<<<<",
"<<<<<<<<<",
"<<<<<<<<<",
"<<<<<<<<<",
"<<<<<<<<<",
"<<<<<<<<<",
"<<<<<<<<<",
"<<<<<<<<<",
"<<<<<<<<<",
"<<<<<<<<<",
"<<<<<<<<<",
"<<<<<<<<<",
"<<<<<<<<<",
":::::::::",
":::::::::",
":::::::::",
":::::::::",
":::::::::",
":::::::::",
":::::::::",
":::::::::",
":::::::::",
":::::::::",
":::::::::",
":::::::::",
":::::::::",
":::::::::",
":::::::::",
":::::::::",
":::::::::",
":::::::::",
":::::::::",
":::::::::",
":::::::::",
":::::::::",
":::::::::",
":::::::::",
":::::::::",
":::::::::",
":::::::::",
"$$$$$$$$$",
"$$$$$$$$$",
"$$$$$$$$$",
"$$$$$$$$$",
"$$$$$$$$$",
"$$$$$$$$$",
"$$$$$$$$$",
"$$$$$$$$$",
"$$$$$$$$$",
"$$$$$$$$$",
"$$$$$$$$$",
"$$$$$$$$$",
"$$$$$$$$$",
"$$$$$$$$$",
"$$$$$$$$$",
"$$$$$$$$$",
"$$$$$$$$$",
"$$$$$$$$$",
"$$$$$$$$$",
"$$$$$$$$$",
"$$$$$$$$$"
};
