/* XPM */
static char *_ed426d1187f4b468109705c9fb7b7d1[] = {
/* columns rows colors chars-per-pixel */
"25 629 24 1 ",
"  c #006A00",
". c #4E6F26",
"X c #265050",
"o c DimGray",
"O c #970000",
"+ c #C00000",
"@ c #EE0027",
"# c #BE8800",
"$ c #FF8800",
"% c #BCBB5F",
"& c #F59271",
"* c #190091",
"= c #4E3190",
"- c #99008F",
"; c #FF0090",
": c #A900D2",
"> c #A600DA",
", c #008E8E",
"< c #0086FF",
"1 c #00BEFF",
"2 c #00D2D5",
"3 c cyan",
"4 c #A9A9A9",
"5 c #82C18C",
/* pixels */
"@@@@@@@@@@@@@@@@@@@@@@@@@",
"@@@@@@@@@@@@@@@@@@@@@@@@@",
"@@@@@@@@@@@@@@@@@@@@@@@@@",
"@@@@@@@@@@@@@@@@@@@@@@@@@",
"@@@@@@@@@@@@@@@@@@@@@@@@@",
"@@@@@@@@@@@@@@@@@@@@@@@@@",
"@@@@@@@@@@@@@@@@@@@@@@@@@",
"@@@@@@@@@@@@@@@@@@@@@@@@@",
"@@@@@@@@@@@@@@@@@@@@@@@@@",
"@@@@@@@@@@@@@@@@@@@@@@@@@",
"@@@@@@@@@@@@@@@@@@@@@@@@@",
"@@@@@@@@@@@@@@@@@@@@@@@@@",
"@@@@@@@@@@@@@@@@@@@@@@@@@",
"@@@@@@@@@@@@@@@@@@@@@@@@@",
"@@@@@@@@@@@@@@@@@@@@@@@@@",
"@@@@@@@@@@@@@@@@@@@@@@@@@",
"@@@@@@@@@@@@@@@@@@@@@@@@@",
"@@@@@@@@@@@@@@@@@@@@@@@@@",
"@@@@@@@@@@@@@@@@@@@@@@@@@",
"@@@@@@@@@@@@@@@@@@@@@@@@@",
"3333333333333333333333333",
"3333333333333333333333333",
"3333333333333333333333333",
"3333333333333333333333333",
"3333333333333333333333333",
"3333333333333333333333333",
"3333333333333333333333333",
"3333333333333333333333333",
"3333333333333333333333333",
"3333333333333333333333333",
"3333333333333333333333333",
"3333333333333333333333333",
"3333333333333333333333333",
"3333333333333333333333333",
"3333333333333333333333333",
"3333333333333333333333333",
"3333333333333333333333333",
"3333333333333333333333333",
"3333333333333333333333333",
"3333333333333333333333333",
"3333333333333333333333333",
"3333333333333333333333333",
"3333333333333333333333333",
"3333333333333333333333333",
"3333333333333333333333333",
"3333333333333333333333333",
"3333333333333333333333333",
"*************************",
"*************************",
"*************************",
"*************************",
"*************************",
"*************************",
"*************************",
"*************************",
"*************************",
"*************************",
"*************************",
"*************************",
"*************************",
"*************************",
"*************************",
"*************************",
"*************************",
"*************************",
"*************************",
"*************************",
"*************************",
"*************************",
"*************************",
"*************************",
"*************************",
"*************************",
"*************************",
",,,,,,,,,,,,,,,,,,,,,,,,,",
",,,,,,,,,,,,,,,,,,,,,,,,,",
",,,,,,,,,,,,,,,,,,,,,,,,,",
",,,,,,,,,,,,,,,,,,,,,,,,,",
",,,,,,,,,,,,,,,,,,,,,,,,,",
",,,,,,,,,,,,,,,,,,,,,,,,,",
",,,,,,,,,,,,,,,,,,,,,,,,,",
",,,,,,,,,,,,,,,,,,,,,,,,,",
",,,,,,,,,,,,,,,,,,,,,,,,,",
",,,,,,,,,,,,,,,,,,,,,,,,,",
",,,,,,,,,,,,,,,,,,,,,,,,,",
",,,,,,,,,,,,,,,,,,,,,,,,,",
",,,,,,,,,,,,,,,,,,,,,,,,,",
",,,,,,,,,,,,,,,,,,,,,,,,,",
",,,,,,,,,,,,,,,,,,,,,,,,,",
",,,,,,,,,,,,,,,,,,,,,,,,,",
",,,,,,,,,,,,,,,,,,,,,,,,,",
",,,,,,,,,,,,,,,,,,,,,,,,,",
",,,,,,,,,,,,,,,,,,,,,,,,,",
",,,,,,,,,,,,,,,,,,,,,,,,,",
",,,,,,,,,,,,,,,,,,,,,,,,,",
",,,,,,,,,,,,,,,,,,,,,,,,,",
",,,,,,,,,,,,,,,,,,,,,,,,,",
",,,,,,,,,,,,,,,,,,,,,,,,,",
",,,,,,,,,,,,,,,,,,,,,,,,,",
",,,,,,,,,,,,,,,,,,,,,,,,,",
",,,,,,,,,,,,,,,,,,,,,,,,,",
"#########################",
"#########################",
"#########################",
"#########################",
"#########################",
"#########################",
"#########################",
"#########################",
"#########################",
"#########################",
"#########################",
"#########################",
"#########################",
"#########################",
"#########################",
"#########################",
"#########################",
"#########################",
"#########################",
"#########################",
"#########################",
"#########################",
"#########################",
"#########################",
"#########################",
"#########################",
"#########################",
"4444444444444444444444444",
"4444444444444444444444444",
"4444444444444444444444444",
"4444444444444444444444444",
"4444444444444444444444444",
"4444444444444444444444444",
"4444444444444444444444444",
"4444444444444444444444444",
"4444444444444444444444444",
"4444444444444444444444444",
"4444444444444444444444444",
"4444444444444444444444444",
"4444444444444444444444444",
"4444444444444444444444444",
"4444444444444444444444444",
"4444444444444444444444444",
"4444444444444444444444444",
"4444444444444444444444444",
"4444444444444444444444444",
"4444444444444444444444444",
"4444444444444444444444444",
"4444444444444444444444444",
"4444444444444444444444444",
"4444444444444444444444444",
"4444444444444444444444444",
"4444444444444444444444444",
"4444444444444444444444444",
"                         ",
"                         ",
"                         ",
"                         ",
"                         ",
"                         ",
"                         ",
"                         ",
"                         ",
"                         ",
"                         ",
"                         ",
"                         ",
"                         ",
"                         ",
"                         ",
"                         ",
"                         ",
"                         ",
"                         ",
"                         ",
"                         ",
"                         ",
"                         ",
"                         ",
"                         ",
"                         ",
"%%%%%%%%%%%%%%%%%%%%%%%%%",
"%%%%%%%%%%%%%%%%%%%%%%%%%",
"%%%%%%%%%%%%%%%%%%%%%%%%%",
"%%%%%%%%%%%%%%%%%%%%%%%%%",
"%%%%%%%%%%%%%%%%%%%%%%%%%",
"%%%%%%%%%%%%%%%%%%%%%%%%%",
"%%%%%%%%%%%%%%%%%%%%%%%%%",
"%%%%%%%%%%%%%%%%%%%%%%%%%",
"%%%%%%%%%%%%%%%%%%%%%%%%%",
"%%%%%%%%%%%%%%%%%%%%%%%%%",
"%%%%%%%%%%%%%%%%%%%%%%%%%",
"%%%%%%%%%%%%%%%%%%%%%%%%%",
"%%%%%%%%%%%%%%%%%%%%%%%%%",
"%%%%%%%%%%%%%%%%%%%%%%%%%",
"%%%%%%%%%%%%%%%%%%%%%%%%%",
"%%%%%%%%%%%%%%%%%%%%%%%%%",
"%%%%%%%%%%%%%%%%%%%%%%%%%",
"%%%%%%%%%%%%%%%%%%%%%%%%%",
"%%%%%%%%%%%%%%%%%%%%%%%%%",
"%%%%%%%%%%%%%%%%%%%%%%%%%",
"%%%%%%%%%%%%%%%%%%%%%%%%%",
"%%%%%%%%%%%%%%%%%%%%%%%%%",
"%%%%%%%%%%%%%%%%%%%%%%%%%",
"%%%%%%%%%%%%%%%%%%%%%%%%%",
"%%%%%%%%%%%%%%%%%%%%%%%%%",
"%%%%%%%%%%%%%%%%%%%%%%%%%",
"%%%%%%%%%%%%%%%%%%%%%%%%%",
"-------------------------",
"-------------------------",
"-------------------------",
"-------------------------",
"-------------------------",
"-------------------------",
"-------------------------",
"-------------------------",
"-------------------------",
"-------------------------",
"-------------------------",
"-------------------------",
"-------------------------",
"-------------------------",
"-------------------------",
"-------------------------",
"-------------------------",
"-------------------------",
"-------------------------",
"-------------------------",
"-------------------------",
"-------------------------",
"-------------------------",
"-------------------------",
"-------------------------",
"-------------------------",
"-------------------------",
".........................",
".........................",
".........................",
".........................",
".........................",
".........................",
".........................",
".........................",
".........................",
".........................",
".........................",
".........................",
".........................",
".........................",
".........................",
".........................",
".........................",
".........................",
".........................",
".........................",
".........................",
".........................",
".........................",
".........................",
".........................",
".........................",
".........................",
"$$$$$$$$$$$$$$$$$$$$$$$$$",
"$$$$$$$$$$$$$$$$$$$$$$$$$",
"$$$$$$$$$$$$$$$$$$$$$$$$$",
"$$$$$$$$$$$$$$$$$$$$$$$$$",
"$$$$$$$$$$$$$$$$$$$$$$$$$",
"$$$$$$$$$$$$$$$$$$$$$$$$$",
"$$$$$$$$$$$$$$$$$$$$$$$$$",
"$$$$$$$$$$$$$$$$$$$$$$$$$",
"$$$$$$$$$$$$$$$$$$$$$$$$$",
"$$$$$$$$$$$$$$$$$$$$$$$$$",
"$$$$$$$$$$$$$$$$$$$$$$$$$",
"$$$$$$$$$$$$$$$$$$$$$$$$$",
"$$$$$$$$$$$$$$$$$$$$$$$$$",
"$$$$$$$$$$$$$$$$$$$$$$$$$",
"$$$$$$$$$$$$$$$$$$$$$$$$$",
"$$$$$$$$$$$$$$$$$$$$$$$$$",
"$$$$$$$$$$$$$$$$$$$$$$$$$",
"$$$$$$$$$$$$$$$$$$$$$$$$$",
"$$$$$$$$$$$$$$$$$$$$$$$$$",
"$$$$$$$$$$$$$$$$$$$$$$$$$",
"$$$$$$$$$$$$$$$$$$$$$$$$$",
"$$$$$$$$$$$$$$$$$$$$$$$$$",
"$$$$$$$$$$$$$$$$$$$$$$$$$",
"$$$$$$$$$$$$$$$$$$$$$$$$$",
"$$$$$$$$$$$$$$$$$$$$$$$$$",
"$$$$$$$$$$$$$$$$$$$$$$$$$",
"$$$$$$$$$$$$$$$$$$$$$$$$$",
":::::::::::::::::::::::::",
":::::::::::::::::::::::::",
":::::::::::::::::::::::::",
":::::::::::::::::::::::::",
":::::::::::::::::::::::::",
":::::::::::::::::::::::::",
":::::::::::::::::::::::::",
":::::::::::::::::::::::::",
":::::::::::::::::::::::::",
":::::::::::::::::::::::::",
":::::::::::::::::::::::::",
":::::::::::::::::::::::::",
":::::::::::::::::::::::::",
":::::::::::::::::::::::::",
":::::::::::::::::::::::::",
":::::::::::::::::::::::::",
":::::::::::::::::::::::::",
":::::::::::::::::::::::::",
":::::::::::::::::::::::::",
":::::::::::::::::::::::::",
":::::::::::::::::::::::::",
":::::::::::::::::::::::::",
":::::::::::::::::::::::::",
":::::::::::::::::::::::::",
":::::::::::::::::::::::::",
":::::::::::::::::::::::::",
":::::::::::::::::::::::::",
"OOOOOOOOOOOOOOOOOOOOOOOOO",
"OOOOOOOOOOOOOOOOOOOOOOOOO",
"OOOOOOOOOOOOOOOOOOOOOOOOO",
"OOOOOOOOOOOOOOOOOOOOOOOOO",
"OOOOOOOOOOOOOOOOOOOOOOOOO",
"OOOOOOOOOOOOOOOOOOOOOOOOO",
"OOOOOOOOOOOOOOOOOOOOOOOOO",
"OOOOOOOOOOOOOOOOOOOOOOOOO",
"OOOOOOOOOOOOOOOOOOOOOOOOO",
"OOOOOOOOOOOOOOOOOOOOOOOOO",
"OOOOOOOOOOOOOOOOOOOOOOOOO",
"OOOOOOOOOOOOOOOOOOOOOOOOO",
"OOOOOOOOOOOOOOOOOOOOOOOOO",
"OOOOOOOOOOOOOOOOOOOOOOOOO",
"OOOOOOOOOOOOOOOOOOOOOOOOO",
"OOOOOOOOOOOOOOOOOOOOOOOOO",
"OOOOOOOOOOOOOOOOOOOOOOOOO",
"OOOOOOOOOOOOOOOOOOOOOOOOO",
"OOOOOOOOOOOOOOOOOOOOOOOOO",
"OOOOOOOOOOOOOOOOOOOOOOOOO",
"OOOOOOOOOOOOOOOOOOOOOOOOO",
"OOOOOOOOOOOOOOOOOOOOOOOOO",
"OOOOOOOOOOOOOOOOOOOOOOOOO",
"OOOOOOOOOOOOOOOOOOOOOOOOO",
"OOOOOOOOOOOOOOOOOOOOOOOOO",
"OOOOOOOOOOOOOOOOOOOOOOOOO",
"OOOOOOOOOOOOOOOOOOOOOOOOO",
"&&&&&&&&&&&&&&&&&&&&&&&&&",
"&&&&&&&&&&&&&&&&&&&&&&&&&",
"&&&&&&&&&&&&&&&&&&&&&&&&&",
"&&&&&&&&&&&&&&&&&&&&&&&&&",
"&&&&&&&&&&&&&&&&&&&&&&&&&",
"&&&&&&&&&&&&&&&&&&&&&&&&&",
"&&&&&&&&&&&&&&&&&&&&&&&&&",
"&&&&&&&&&&&&&&&&&&&&&&&&&",
"&&&&&&&&&&&&&&&&&&&&&&&&&",
"&&&&&&&&&&&&&&&&&&&&&&&&&",
"&&&&&&&&&&&&&&&&&&&&&&&&&",
"&&&&&&&&&&&&&&&&&&&&&&&&&",
"&&&&&&&&&&&&&&&&&&&&&&&&&",
"&&&&&&&&&&&&&&&&&&&&&&&&&",
"&&&&&&&&&&&&&&&&&&&&&&&&&",
"&&&&&&&&&&&&&&&&&&&&&&&&&",
"&&&&&&&&&&&&&&&&&&&&&&&&&",
"&&&&&&&&&&&&&&&&&&&&&&&&&",
"&&&&&&&&&&&&&&&&&&&&&&&&&",
"&&&&&&&&&&&&&&&&&&&&&&&&&",
"&&&&&&&&&&&&&&&&&&&&&&&&&",
"&&&&&&&&&&&&&&&&&&&&&&&&&",
"&&&&&&&&&&&&&&&&&&&&&&&&&",
"&&&&&&&&&&&&&&&&&&&&&&&&&",
"&&&&&&&&&&&&&&&&&&&&&&&&&",
"&&&&&&&&&&&&&&&&&&&&&&&&&",
"&&&&&&&&&&&&&&&&&&&&&&&&&",
"5555555555555555555555555",
"5555555555555555555555555",
"5555555555555555555555555",
"5555555555555555555555555",
"5555555555555555555555555",
"5555555555555555555555555",
"5555555555555555555555555",
"5555555555555555555555555",
"5555555555555555555555555",
"5555555555555555555555555",
"5555555555555555555555555",
"5555555555555555555555555",
"5555555555555555555555555",
"5555555555555555555555555",
"5555555555555555555555555",
"5555555555555555555555555",
"5555555555555555555555555",
"5555555555555555555555555",
"5555555555555555555555555",
"5555555555555555555555555",
"5555555555555555555555555",
"5555555555555555555555555",
"5555555555555555555555555",
"5555555555555555555555555",
"5555555555555555555555555",
"5555555555555555555555555",
"5555555555555555555555555",
"=========================",
"=========================",
"=========================",
"=========================",
"=========================",
"=========================",
"=========================",
"=========================",
"=========================",
"=========================",
"=========================",
"=========================",
"=========================",
"=========================",
"=========================",
"=========================",
"=========================",
"=========================",
"=========================",
"=========================",
"=========================",
"=========================",
"=========================",
"=========================",
"=========================",
"=========================",
"=========================",
"XXXXXXXXXXXXXXXXXXXXXXXXX",
"XXXXXXXXXXXXXXXXXXXXXXXXX",
"XXXXXXXXXXXXXXXXXXXXXXXXX",
"XXXXXXXXXXXXXXXXXXXXXXXXX",
"XXXXXXXXXXXXXXXXXXXXXXXXX",
"XXXXXXXXXXXXXXXXXXXXXXXXX",
"XXXXXXXXXXXXXXXXXXXXXXXXX",
"XXXXXXXXXXXXXXXXXXXXXXXXX",
"XXXXXXXXXXXXXXXXXXXXXXXXX",
"XXXXXXXXXXXXXXXXXXXXXXXXX",
"XXXXXXXXXXXXXXXXXXXXXXXXX",
"XXXXXXXXXXXXXXXXXXXXXXXXX",
"XXXXXXXXXXXXXXXXXXXXXXXXX",
"XXXXXXXXXXXXXXXXXXXXXXXXX",
"XXXXXXXXXXXXXXXXXXXXXXXXX",
"XXXXXXXXXXXXXXXXXXXXXXXXX",
"XXXXXXXXXXXXXXXXXXXXXXXXX",
"XXXXXXXXXXXXXXXXXXXXXXXXX",
"XXXXXXXXXXXXXXXXXXXXXXXXX",
"XXXXXXXXXXXXXXXXXXXXXXXXX",
"XXXXXXXXXXXXXXXXXXXXXXXXX",
"XXXXXXXXXXXXXXXXXXXXXXXXX",
"XXXXXXXXXXXXXXXXXXXXXXXXX",
"XXXXXXXXXXXXXXXXXXXXXXXXX",
"XXXXXXXXXXXXXXXXXXXXXXXXX",
"XXXXXXXXXXXXXXXXXXXXXXXXX",
"XXXXXXXXXXXXXXXXXXXXXXXXX",
"2222222222222222222222222",
"2222222222222222222222222",
"2222222222222222222222222",
"2222222222222222222222222",
"2222222222222222222222222",
"2222222222222222222222222",
"2222222222222222222222222",
"2222222222222222222222222",
"2222222222222222222222222",
"2222222222222222222222222",
"2222222222222222222222222",
"2222222222222222222222222",
"2222222222222222222222222",
"2222222222222222222222222",
"2222222222222222222222222",
"2222222222222222222222222",
"2222222222222222222222222",
"2222222222222222222222222",
"2222222222222222222222222",
"2222222222222222222222222",
"2222222222222222222222222",
"2222222222222222222222222",
"2222222222222222222222222",
"2222222222222222222222222",
"2222222222222222222222222",
"2222222222222222222222222",
"2222222222222222222222222",
">>>>>>>>>>>>>>>>>>>>>>>>>",
">>>>>>>>>>>>>>>>>>>>>>>>>",
">>>>>>>>>>>>>>>>>>>>>>>>>",
">>>>>>>>>>>>>>>>>>>>>>>>>",
">>>>>>>>>>>>>>>>>>>>>>>>>",
">>>>>>>>>>>>>>>>>>>>>>>>>",
">>>>>>>>>>>>>>>>>>>>>>>>>",
">>>>>>>>>>>>>>>>>>>>>>>>>",
">>>>>>>>>>>>>>>>>>>>>>>>>",
">>>>>>>>>>>>>>>>>>>>>>>>>",
">>>>>>>>>>>>>>>>>>>>>>>>>",
">>>>>>>>>>>>>>>>>>>>>>>>>",
">>>>>>>>>>>>>>>>>>>>>>>>>",
">>>>>>>>>>>>>>>>>>>>>>>>>",
">>>>>>>>>>>>>>>>>>>>>>>>>",
">>>>>>>>>>>>>>>>>>>>>>>>>",
">>>>>>>>>>>>>>>>>>>>>>>>>",
">>>>>>>>>>>>>>>>>>>>>>>>>",
">>>>>>>>>>>>>>>>>>>>>>>>>",
">>>>>>>>>>>>>>>>>>>>>>>>>",
">>>>>>>>>>>>>>>>>>>>>>>>>",
">>>>>>>>>>>>>>>>>>>>>>>>>",
">>>>>>>>>>>>>>>>>>>>>>>>>",
">>>>>>>>>>>>>>>>>>>>>>>>>",
">>>>>>>>>>>>>>>>>>>>>>>>>",
">>>>>>>>>>>>>>>>>>>>>>>>>",
">>>>>>>>>>>>>>>>>>>>>>>>>",
";;;;;;;;;;;;;;;;;;;;;;;;;",
";;;;;;;;;;;;;;;;;;;;;;;;;",
";;;;;;;;;;;;;;;;;;;;;;;;;",
";;;;;;;;;;;;;;;;;;;;;;;;;",
";;;;;;;;;;;;;;;;;;;;;;;;;",
";;;;;;;;;;;;;;;;;;;;;;;;;",
";;;;;;;;;;;;;;;;;;;;;;;;;",
";;;;;;;;;;;;;;;;;;;;;;;;;",
";;;;;;;;;;;;;;;;;;;;;;;;;",
";;;;;;;;;;;;;;;;;;;;;;;;;",
";;;;;;;;;;;;;;;;;;;;;;;;;",
";;;;;;;;;;;;;;;;;;;;;;;;;",
";;;;;;;;;;;;;;;;;;;;;;;;;",
";;;;;;;;;;;;;;;;;;;;;;;;;",
";;;;;;;;;;;;;;;;;;;;;;;;;",
";;;;;;;;;;;;;;;;;;;;;;;;;",
";;;;;;;;;;;;;;;;;;;;;;;;;",
";;;;;;;;;;;;;;;;;;;;;;;;;",
";;;;;;;;;;;;;;;;;;;;;;;;;",
";;;;;;;;;;;;;;;;;;;;;;;;;",
";;;;;;;;;;;;;;;;;;;;;;;;;",
";;;;;;;;;;;;;;;;;;;;;;;;;",
";;;;;;;;;;;;;;;;;;;;;;;;;",
";;;;;;;;;;;;;;;;;;;;;;;;;",
";;;;;;;;;;;;;;;;;;;;;;;;;",
";;;;;;;;;;;;;;;;;;;;;;;;;",
";;;;;;;;;;;;;;;;;;;;;;;;;",
"1111111111111111111111111",
"1111111111111111111111111",
"1111111111111111111111111",
"1111111111111111111111111",
"1111111111111111111111111",
"1111111111111111111111111",
"1111111111111111111111111",
"1111111111111111111111111",
"1111111111111111111111111",
"1111111111111111111111111",
"1111111111111111111111111",
"1111111111111111111111111",
"1111111111111111111111111",
"1111111111111111111111111",
"1111111111111111111111111",
"1111111111111111111111111",
"1111111111111111111111111",
"1111111111111111111111111",
"1111111111111111111111111",
"1111111111111111111111111",
"1111111111111111111111111",
"1111111111111111111111111",
"1111111111111111111111111",
"1111111111111111111111111",
"1111111111111111111111111",
"1111111111111111111111111",
"1111111111111111111111111",
"ooooooooooooooooooooooooo",
"ooooooooooooooooooooooooo",
"ooooooooooooooooooooooooo",
"ooooooooooooooooooooooooo",
"ooooooooooooooooooooooooo",
"ooooooooooooooooooooooooo",
"ooooooooooooooooooooooooo",
"ooooooooooooooooooooooooo",
"ooooooooooooooooooooooooo",
"ooooooooooooooooooooooooo",
"ooooooooooooooooooooooooo",
"ooooooooooooooooooooooooo",
"ooooooooooooooooooooooooo",
"ooooooooooooooooooooooooo",
"ooooooooooooooooooooooooo",
"ooooooooooooooooooooooooo",
"ooooooooooooooooooooooooo",
"ooooooooooooooooooooooooo",
"ooooooooooooooooooooooooo",
"ooooooooooooooooooooooooo",
"ooooooooooooooooooooooooo",
"ooooooooooooooooooooooooo",
"ooooooooooooooooooooooooo",
"ooooooooooooooooooooooooo",
"ooooooooooooooooooooooooo",
"ooooooooooooooooooooooooo",
"ooooooooooooooooooooooooo",
"<<<<<<<<<<<<<<<<<<<<<<<<<",
"<<<<<<<<<<<<<<<<<<<<<<<<<",
"<<<<<<<<<<<<<<<<<<<<<<<<<",
"<<<<<<<<<<<<<<<<<<<<<<<<<",
"<<<<<<<<<<<<<<<<<<<<<<<<<",
"<<<<<<<<<<<<<<<<<<<<<<<<<",
"<<<<<<<<<<<<<<<<<<<<<<<<<",
"<<<<<<<<<<<<<<<<<<<<<<<<<",
"<<<<<<<<<<<<<<<<<<<<<<<<<",
"<<<<<<<<<<<<<<<<<<<<<<<<<",
"<<<<<<<<<<<<<<<<<<<<<<<<<",
"<<<<<<<<<<<<<<<<<<<<<<<<<",
"<<<<<<<<<<<<<<<<<<<<<<<<<",
"<<<<<<<<<<<<<<<<<<<<<<<<<",
"<<<<<<<<<<<<<<<<<<<<<<<<<",
"<<<<<<<<<<<<<<<<<<<<<<<<<",
"<<<<<<<<<<<<<<<<<<<<<<<<<",
"<<<<<<<<<<<<<<<<<<<<<<<<<",
"<<<<<<<<<<<<<<<<<<<<<<<<<",
"<<<<<<<<<<<<<<<<<<<<<<<<<",
"<<<<<<<<<<<<<<<<<<<<<<<<<",
"<<<<<<<<<<<<<<<<<<<<<<<<<",
"<<<<<<<<<<<<<<<<<<<<<<<<<",
"<<<<<<<<<<<<<<<<<<<<<<<<<",
"<<<<<<<<<<<<<<<<<<<<<<<<<",
"<<<<<<<<<<<<<<<<<<<<<<<<<",
"<<<<<<<<<<<<<<<<<<<<<<<<<",
"+++++++++++++++++++++++++",
"+++++++++++++++++++++++++",
"+++++++++++++++++++++++++",
"+++++++++++++++++++++++++",
"+++++++++++++++++++++++++",
"+++++++++++++++++++++++++",
"+++++++++++++++++++++++++",
"+++++++++++++++++++++++++",
"+++++++++++++++++++++++++",
"+++++++++++++++++++++++++",
"+++++++++++++++++++++++++",
"+++++++++++++++++++++++++",
"+++++++++++++++++++++++++",
"+++++++++++++++++++++++++",
"+++++++++++++++++++++++++"
};
