/* XPM */
static char *e0131128478047c78130e8fe13282cf7[] = {
/* columns rows colors chars-per-pixel */
"128 128 2 1 ",
"  c blue",
". c #00CCFF",
/* pixels */
"                                                               .................................................................",
"                                                               .................................................................",
"                                                               .................................................................",
"                                                               .................................................................",
"                                                               .................................................................",
"                                                               .................................................................",
"                                                               .................................................................",
"                                                               .................................................................",
"                                                               .................................................................",
"                                                               .................................................................",
"                                                               .................................................................",
"                                                               .................................................................",
"                                                               .................................................................",
"                                                               .................................................................",
"                                                               .................................................................",
"                                                               .................................................................",
"                                                               .................................................................",
"                                                               .................................................................",
"                                                               .................................................................",
"                                                               .................................................................",
"                                                               .................................................................",
"                                                               .................................................................",
"                                                               .................................................................",
"                                                               .................................................................",
"                                                               .................................................................",
"                                                               .................................................................",
"                                                               .................................................................",
"                                                               .................................................................",
"                                                               .................................................................",
"                                                               .................................................................",
"                                                               .................................................................",
"                                                               .................................................................",
"                                                               .................................................................",
"                                                               .................................................................",
"                                                               .................................................................",
"                                                               .................................................................",
"                                                               .................................................................",
"                                                               .................................................................",
"                                                               .................................................................",
"                                                               .................................................................",
"                                                               .................................................................",
"                                                               .................................................................",
"                                                               .................................................................",
"                                                               .................................................................",
"                                                               .................................................................",
"                                                               .................................................................",
"                                                               .................................................................",
"                                                               .................................................................",
"                                                               .................................................................",
"                                                               .................................................................",
"                                                               .................................................................",
"                                                               .................................................................",
"                                                               .................................................................",
"                                                               .................................................................",
"                                                               .................................................................",
"                                                               .................................................................",
"                                                               .................................................................",
"                                                               .................................................................",
"                                                               .................................................................",
"                                                               .................................................................",
"                                                               .................................................................",
"                                                               .................................................................",
"                                                               .................................................................",
"                                                               .................................................................",
"                                                               .................................................................",
"                                                               .................................................................",
"                                                               .................................................................",
"                                                               .................................................................",
"                                                               .................................................................",
"                                                               .................................................................",
"                                                               .................................................................",
"                                                               .................................................................",
"                                                               .................................................................",
"                                                               .................................................................",
"                                                               .................................................................",
"                                                               .................................................................",
"                                                               .................................................................",
"                                                               .................................................................",
"                                                               .................................................................",
"                                                               .................................................................",
"                                                               .................................................................",
"                                                               .................................................................",
"                                                               .................................................................",
"                                                               .................................................................",
"                                                               .................................................................",
"                                                               .................................................................",
"                                                               .................................................................",
"                                                               .................................................................",
"                                                               .................................................................",
"                                                               .................................................................",
"                                                               .................................................................",
"                                                               .................................................................",
"                                                               .................................................................",
"                                                               .................................................................",
"                                                               .................................................................",
"                                                               .................................................................",
"                                                               .................................................................",
"                                                               .................................................................",
"                                                               .................................................................",
"                                                               .................................................................",
"                                                               .................................................................",
"                                                               .................................................................",
"                                                               .................................................................",
"                                                               .................................................................",
"                                                               .................................................................",
"                                                               .................................................................",
"                                                               .................................................................",
"                                                               .................................................................",
"                                                               .................................................................",
"                                                               .................................................................",
"                                                               .................................................................",
"                                                               .................................................................",
"                                                               .................................................................",
"                                                               .................................................................",
"                                                               .................................................................",
"                                                               .................................................................",
"                                                               .................................................................",
"                                                               .................................................................",
"                                                               .................................................................",
"                                                               .................................................................",
"                                                               .................................................................",
"                                                               .................................................................",
"                                                               .................................................................",
"                                                               .................................................................",
"                                                               .................................................................",
"                                                               .................................................................",
"                                                               .................................................................",
"                                                               ................................................................."
};
